<svg width="304" height="57" viewBox="0 0 304 57" fill="none" xmlns="http://www.w3.org/2000/svg">
<path fill-rule="evenodd" clip-rule="evenodd" d="M19.2442 0.136933C18.6834 0.338683 17.8588 0.921072 16.6872 1.94256C11.2515 6.68178 7.77668 12.9494 6.69533 19.9648C6.55124 20.8993 6.47663 22.0021 6.43973 23.7415L6.38759 26.1982L4.36107 28.2538C3.12199 29.5105 2.15044 30.5897 1.86115 31.0306C0.0635463 33.7695 -0.458377 37.1007 0.411094 40.2866C0.638314 41.1191 3.32815 47.3475 3.58776 47.6419C4.0072 48.1179 4.65777 48.2319 5.15573 47.9169C5.32118 47.8122 6.90049 46.3236 8.6653 44.6087C10.4301 42.8939 11.9006 41.4906 11.933 41.4904C11.9655 41.4901 12.2642 41.8409 12.5968 42.2701C12.9294 42.6993 13.6499 43.5453 14.1979 44.1502L15.1941 45.2501L14.9636 45.6512C13.8623 47.5674 13.9218 49.9322 15.1179 51.7826C15.4858 52.3517 19.1684 56.084 19.723 56.4497C20.0732 56.6807 20.7214 56.6807 21.0716 56.4497C21.6261 56.084 25.3088 52.3517 25.6767 51.7826C26.873 49.9319 26.9323 47.5629 25.8303 45.6512L25.5991 45.2501L26.5201 44.2377C27.0266 43.6809 27.7469 42.8348 28.1208 42.3576C28.4946 41.8804 28.8276 41.4899 28.8607 41.4899C28.8939 41.4899 30.3648 42.8928 32.1295 44.6076C33.8942 46.3224 35.4734 47.8112 35.6389 47.9162C36.1364 48.2321 36.7898 48.1177 37.2054 47.6419C37.5278 47.273 40.195 41.0154 40.4562 40.0151C41.0819 37.6191 40.8177 34.8055 39.75 32.4946C39.1204 31.1318 38.536 30.386 36.4228 28.2487L34.3854 26.1881L34.3853 24.2879C34.385 19.586 33.4392 15.5533 31.3291 11.2575C29.5291 7.59276 26.8668 4.22679 23.6562 1.5564C22.1631 0.314618 21.6232 0.0452835 20.5477 0.00587609C19.9474 -0.0160838 19.5619 0.0226217 19.2442 0.136933ZM21.3499 2.91782C21.8503 3.15917 23.84 4.9674 24.8759 6.12235C28.4401 10.096 30.6881 14.7563 31.585 20.0314C31.8562 21.6261 31.9619 25.3086 31.7843 26.977C31.1438 32.9968 28.5295 38.5778 24.2706 43.0171L23.3308 43.9967H20.3954H17.4601L16.6806 43.1695C11.7525 37.9392 8.91599 30.9651 8.91599 24.0786C8.91599 22.0711 9.03962 20.8086 9.42397 18.8898C10.246 14.7865 12.1602 10.7435 14.8992 7.32533C16.3403 5.52683 18.9608 3.04256 19.6677 2.80451C20.1094 2.6558 20.9196 2.71035 21.3499 2.91782ZM18.5804 16.319C16.6213 16.8326 14.966 18.1788 14.0773 19.9812C13.5947 20.9597 13.4004 21.8112 13.4021 22.9393C13.405 24.8313 13.9875 26.2072 15.3807 27.6133C16.125 28.3644 16.4377 28.6006 17.1384 28.9414C18.3491 29.5301 19.0835 29.7012 20.3973 29.7012C22.2897 29.7012 23.8874 29.0897 25.1797 27.8706C26.6986 26.4378 27.3895 24.8979 27.3925 22.9393C27.3964 20.3428 25.9845 18.0676 23.6197 16.8594C22.1741 16.1208 20.1598 15.9048 18.5804 16.319ZM21.1352 18.4317C24.1846 18.9266 25.9123 22.0834 24.6214 24.8017C22.9477 28.326 17.8469 28.326 16.1732 24.8017C15.5468 23.4826 15.5956 22.0299 16.3109 20.7083C16.8893 19.6393 18.3131 18.6473 19.5694 18.4379C20.3055 18.3153 20.4153 18.3149 21.1352 18.4317ZM7.28815 31.3623C7.82311 33.5578 8.45322 35.2334 9.58812 37.479L10.5258 39.334L7.79062 42.0123C6.28632 43.4854 5.02869 44.6925 4.996 44.6946C4.86514 44.7034 3.26387 40.8769 3.02542 39.9858C2.67146 38.6628 2.65171 36.5574 2.981 35.2353C3.4574 33.3223 4.42404 31.6492 5.88633 30.2064C6.60468 29.4978 6.76893 29.3785 6.82137 29.5273C6.85637 29.6265 7.06644 30.4523 7.28815 31.3623ZM35.5701 30.8933C36.6531 32.152 37.4114 33.6214 37.816 35.2455C38.1428 36.5568 38.1219 38.6675 37.7692 39.9858C37.5307 40.8769 35.9295 44.7034 35.7986 44.6946C35.7659 44.6925 34.5073 43.4854 33.0016 42.0123L30.2641 39.334L31.2046 37.479C32.5115 34.9009 33.2821 32.6819 33.9314 29.6263L33.9913 29.3445L34.5143 29.8091C34.8019 30.0648 35.277 30.5527 35.5701 30.8933ZM23.6978 46.9297C24.0821 47.7172 24.2097 48.4876 24.0705 49.1806C23.8577 50.2399 23.6259 50.5713 21.9689 52.1861L20.4078 53.7071L18.9799 52.3551C17.3762 50.8364 17.0115 50.3434 16.7712 49.3702C16.5719 48.5622 16.6734 47.7937 17.0931 46.936L17.3537 46.4033H20.3973H23.4409L23.6978 46.9297Z" fill="#A569E5"/>
<path d="M78.192 40V20.4H85.528C87.1893 20.4 88.6173 20.6707 89.812 21.212C91.0067 21.7347 91.9213 22.5 92.556 23.508C93.2093 24.4973 93.536 25.7013 93.536 27.12C93.536 28.5013 93.2093 29.696 92.556 30.704C91.9213 31.6933 91.0067 32.4587 89.812 33C88.6173 33.5413 87.1893 33.812 85.528 33.812H79.34L80.264 32.832V40H78.192ZM80.264 33L79.34 31.992H85.472C87.432 31.992 88.916 31.572 89.924 30.732C90.9507 29.8733 91.464 28.6693 91.464 27.12C91.464 25.552 90.9507 24.3387 89.924 23.48C88.916 22.6213 87.432 22.192 85.472 22.192H79.34L80.264 21.212V33ZM97.2408 40V25.3H99.1448V29.304L98.9488 28.604C99.3594 27.484 100.05 26.6347 101.021 26.056C101.991 25.4587 103.195 25.16 104.633 25.16V27.092C104.558 27.092 104.483 27.092 104.409 27.092C104.334 27.0733 104.259 27.064 104.185 27.064C102.635 27.064 101.422 27.54 100.545 28.492C99.6674 29.4253 99.2288 30.76 99.2288 32.496V40H97.2408ZM114.116 40.14C112.697 40.14 111.418 39.8227 110.28 39.188C109.16 38.5347 108.273 37.648 107.62 36.528C106.966 35.3893 106.64 34.092 106.64 32.636C106.64 31.1613 106.966 29.864 107.62 28.744C108.273 27.624 109.16 26.7467 110.28 26.112C111.4 25.4773 112.678 25.16 114.116 25.16C115.572 25.16 116.86 25.4773 117.98 26.112C119.118 26.7467 120.005 27.624 120.64 28.744C121.293 29.864 121.62 31.1613 121.62 32.636C121.62 34.092 121.293 35.3893 120.64 36.528C120.005 37.648 119.118 38.5347 117.98 39.188C116.841 39.8227 115.553 40.14 114.116 40.14ZM114.116 38.376C115.18 38.376 116.122 38.1427 116.944 37.676C117.765 37.1907 118.409 36.5187 118.876 35.66C119.361 34.7827 119.604 33.7747 119.604 32.636C119.604 31.4787 119.361 30.4707 118.876 29.612C118.409 28.7533 117.765 28.0907 116.944 27.624C116.122 27.1387 115.189 26.896 114.144 26.896C113.098 26.896 112.165 27.1387 111.344 27.624C110.522 28.0907 109.869 28.7533 109.384 29.612C108.898 30.4707 108.656 31.4787 108.656 32.636C108.656 33.7747 108.898 34.7827 109.384 35.66C109.869 36.5187 110.522 37.1907 111.344 37.676C112.165 38.1427 113.089 38.376 114.116 38.376ZM123.494 45.572C122.897 45.572 122.328 45.488 121.786 45.32C121.226 45.1707 120.76 44.9373 120.386 44.62L121.086 43.108C121.684 43.612 122.449 43.864 123.382 43.864C124.166 43.864 124.764 43.6307 125.174 43.164C125.604 42.6973 125.818 42.0067 125.818 41.092V25.3H127.806V41.092C127.806 42.4547 127.433 43.5373 126.686 44.34C125.958 45.1613 124.894 45.572 123.494 45.572ZM126.826 22.052C126.416 22.052 126.07 21.912 125.79 21.632C125.51 21.352 125.37 21.016 125.37 20.624C125.37 20.232 125.51 19.9053 125.79 19.644C126.07 19.364 126.416 19.224 126.826 19.224C127.237 19.224 127.582 19.3547 127.862 19.616C128.142 19.8773 128.282 20.204 128.282 20.596C128.282 21.0067 128.142 21.352 127.862 21.632C127.601 21.912 127.256 22.052 126.826 22.052ZM139.606 40.14C138.075 40.14 136.731 39.8227 135.574 39.188C134.417 38.5347 133.511 37.648 132.858 36.528C132.205 35.3893 131.878 34.092 131.878 32.636C131.878 31.18 132.186 29.892 132.802 28.772C133.437 27.652 134.295 26.7747 135.378 26.14C136.479 25.4867 137.711 25.16 139.074 25.16C140.455 25.16 141.678 25.4773 142.742 26.112C143.825 26.728 144.674 27.6053 145.29 28.744C145.906 29.864 146.214 31.1613 146.214 32.636C146.214 32.7293 146.205 32.832 146.186 32.944C146.186 33.0373 146.186 33.14 146.186 33.252H133.39V31.768H145.122L144.338 32.356C144.338 31.292 144.105 30.3493 143.638 29.528C143.19 28.688 142.574 28.0347 141.79 27.568C141.006 27.1013 140.101 26.868 139.074 26.868C138.066 26.868 137.161 27.1013 136.358 27.568C135.555 28.0347 134.93 28.688 134.482 29.528C134.034 30.368 133.81 31.3293 133.81 32.412V32.72C133.81 33.84 134.053 34.8293 134.538 35.688C135.042 36.528 135.733 37.1907 136.61 37.676C137.506 38.1427 138.523 38.376 139.662 38.376C140.558 38.376 141.389 38.2173 142.154 37.9C142.938 37.5827 143.61 37.0973 144.17 36.444L145.29 37.732C144.637 38.516 143.815 39.1133 142.826 39.524C141.855 39.9347 140.782 40.14 139.606 40.14ZM156.364 40.14C154.908 40.14 153.602 39.8227 152.444 39.188C151.306 38.5347 150.41 37.648 149.756 36.528C149.103 35.3893 148.776 34.092 148.776 32.636C148.776 31.1613 149.103 29.864 149.756 28.744C150.41 27.624 151.306 26.7467 152.444 26.112C153.602 25.4773 154.908 25.16 156.364 25.16C157.615 25.16 158.744 25.4027 159.752 25.888C160.76 26.3733 161.554 27.1013 162.132 28.072L160.648 29.08C160.144 28.3333 159.519 27.7827 158.772 27.428C158.026 27.0733 157.214 26.896 156.336 26.896C155.291 26.896 154.348 27.1387 153.508 27.624C152.668 28.0907 152.006 28.7533 151.52 29.612C151.035 30.4707 150.792 31.4787 150.792 32.636C150.792 33.7933 151.035 34.8013 151.52 35.66C152.006 36.5187 152.668 37.1907 153.508 37.676C154.348 38.1427 155.291 38.376 156.336 38.376C157.214 38.376 158.026 38.1987 158.772 37.844C159.519 37.4893 160.144 36.948 160.648 36.22L162.132 37.228C161.554 38.18 160.76 38.908 159.752 39.412C158.744 39.8973 157.615 40.14 156.364 40.14ZM170.85 40.14C169.468 40.14 168.404 39.7667 167.658 39.02C166.911 38.2733 166.538 37.2187 166.538 35.856V22.052H168.526V35.744C168.526 36.6027 168.74 37.2653 169.17 37.732C169.618 38.1987 170.252 38.432 171.074 38.432C171.951 38.432 172.679 38.18 173.258 37.676L173.958 39.104C173.566 39.4587 173.09 39.72 172.53 39.888C171.988 40.056 171.428 40.14 170.85 40.14ZM163.906 26.952V25.3H173.006V26.952H163.906ZM177.437 40V20.4H180.433L189.001 34.708H187.433L195.861 20.4H198.857L198.885 40H195.441L195.413 25.804H196.141L188.973 37.76H187.349L180.069 25.804H180.909V40H177.437ZM213.055 40V36.976L212.859 36.332V31.04C212.859 30.0133 212.551 29.22 211.935 28.66C211.319 28.0813 210.386 27.792 209.135 27.792C208.295 27.792 207.464 27.9227 206.643 28.184C205.84 28.4453 205.159 28.8093 204.599 29.276L203.227 26.728C204.03 26.112 204.982 25.6547 206.083 25.356C207.203 25.0387 208.36 24.88 209.555 24.88C211.72 24.88 213.391 25.4027 214.567 26.448C215.762 27.4747 216.359 29.0707 216.359 31.236V40H213.055ZM208.351 40.196C207.231 40.196 206.251 40.0093 205.411 39.636C204.571 39.244 203.918 38.712 203.451 38.04C203.003 37.3493 202.779 36.5747 202.779 35.716C202.779 34.876 202.975 34.12 203.367 33.448C203.778 32.776 204.44 32.244 205.355 31.852C206.27 31.46 207.483 31.264 208.995 31.264H213.335V33.588H209.247C208.052 33.588 207.25 33.784 206.839 34.176C206.428 34.5493 206.223 35.016 206.223 35.576C206.223 36.2107 206.475 36.7147 206.979 37.088C207.483 37.4613 208.183 37.648 209.079 37.648C209.938 37.648 210.703 37.452 211.375 37.06C212.066 36.668 212.56 36.0893 212.859 35.324L213.447 37.424C213.111 38.3013 212.504 38.9827 211.627 39.468C210.768 39.9533 209.676 40.196 208.351 40.196ZM229.335 24.88C230.529 24.88 231.593 25.1133 232.527 25.58C233.479 26.0467 234.225 26.7653 234.767 27.736C235.308 28.688 235.579 29.92 235.579 31.432V40H232.079V31.88C232.079 30.5547 231.761 29.5653 231.127 28.912C230.511 28.2587 229.643 27.932 228.523 27.932C227.701 27.932 226.973 28.1 226.339 28.436C225.704 28.772 225.209 29.276 224.855 29.948C224.519 30.6013 224.351 31.432 224.351 32.44V40H220.851V25.048H224.183V29.08L223.595 27.848C224.117 26.896 224.873 26.168 225.863 25.664C226.871 25.1413 228.028 24.88 229.335 24.88ZM249.231 40V36.976L249.035 36.332V31.04C249.035 30.0133 248.727 29.22 248.111 28.66C247.495 28.0813 246.561 27.792 245.311 27.792C244.471 27.792 243.64 27.9227 242.819 28.184C242.016 28.4453 241.335 28.8093 240.775 29.276L239.403 26.728C240.205 26.112 241.157 25.6547 242.259 25.356C243.379 25.0387 244.536 24.88 245.731 24.88C247.896 24.88 249.567 25.4027 250.743 26.448C251.937 27.4747 252.535 29.0707 252.535 31.236V40H249.231ZM244.527 40.196C243.407 40.196 242.427 40.0093 241.587 39.636C240.747 39.244 240.093 38.712 239.627 38.04C239.179 37.3493 238.955 36.5747 238.955 35.716C238.955 34.876 239.151 34.12 239.543 33.448C239.953 32.776 240.616 32.244 241.531 31.852C242.445 31.46 243.659 31.264 245.171 31.264H249.511V33.588H245.423C244.228 33.588 243.425 33.784 243.015 34.176C242.604 34.5493 242.399 35.016 242.399 35.576C242.399 36.2107 242.651 36.7147 243.155 37.088C243.659 37.4613 244.359 37.648 245.255 37.648C246.113 37.648 246.879 37.452 247.551 37.06C248.241 36.668 248.736 36.0893 249.035 35.324L249.623 37.424C249.287 38.3013 248.68 38.9827 247.803 39.468C246.944 39.9533 245.852 40.196 244.527 40.196ZM263.83 45.628C262.448 45.628 261.095 45.4413 259.77 45.068C258.463 44.7133 257.39 44.1907 256.55 43.5L258.118 40.868C258.771 41.4093 259.592 41.8387 260.582 42.156C261.59 42.492 262.607 42.66 263.634 42.66C265.276 42.66 266.48 42.2773 267.246 41.512C268.011 40.7653 268.394 39.636 268.394 38.124V35.464L268.674 32.076L268.562 28.688V25.048H271.894V37.732C271.894 40.4387 271.203 42.4267 269.822 43.696C268.44 44.984 266.443 45.628 263.83 45.628ZM263.382 39.328C261.963 39.328 260.675 39.0293 259.518 38.432C258.379 37.816 257.474 36.9667 256.802 35.884C256.148 34.8013 255.822 33.532 255.822 32.076C255.822 30.6387 256.148 29.3787 256.802 28.296C257.474 27.2133 258.379 26.3733 259.518 25.776C260.675 25.1787 261.963 24.88 263.382 24.88C264.651 24.88 265.79 25.132 266.798 25.636C267.806 26.14 268.608 26.924 269.206 27.988C269.822 29.052 270.13 30.4147 270.13 32.076C270.13 33.7373 269.822 35.1093 269.206 36.192C268.608 37.256 267.806 38.0493 266.798 38.572C265.79 39.076 264.651 39.328 263.382 39.328ZM263.914 36.36C264.791 36.36 265.575 36.1827 266.266 35.828C266.956 35.4547 267.488 34.9507 267.862 34.316C268.254 33.6627 268.45 32.916 268.45 32.076C268.45 31.236 268.254 30.4987 267.862 29.864C267.488 29.2107 266.956 28.716 266.266 28.38C265.575 28.0253 264.791 27.848 263.914 27.848C263.036 27.848 262.243 28.0253 261.534 28.38C260.843 28.716 260.302 29.2107 259.91 29.864C259.536 30.4987 259.35 31.236 259.35 32.076C259.35 32.916 259.536 33.6627 259.91 34.316C260.302 34.9507 260.843 35.4547 261.534 35.828C262.243 36.1827 263.036 36.36 263.914 36.36ZM283.523 40.196C281.862 40.196 280.406 39.8693 279.155 39.216C277.923 38.544 276.962 37.6293 276.271 36.472C275.599 35.3147 275.263 33.9987 275.263 32.524C275.263 31.0307 275.59 29.7147 276.243 28.576C276.915 27.4187 277.83 26.5133 278.987 25.86C280.163 25.2067 281.498 24.88 282.991 24.88C284.447 24.88 285.745 25.1973 286.883 25.832C288.022 26.4667 288.918 27.3627 289.571 28.52C290.225 29.6773 290.551 31.04 290.551 32.608C290.551 32.7573 290.542 32.9253 290.523 33.112C290.523 33.2987 290.514 33.476 290.495 33.644H278.035V31.32H288.647L287.275 32.048C287.294 31.1893 287.117 30.4333 286.743 29.78C286.37 29.1267 285.857 28.6133 285.203 28.24C284.569 27.8667 283.831 27.68 282.991 27.68C282.133 27.68 281.377 27.8667 280.723 28.24C280.089 28.6133 279.585 29.136 279.211 29.808C278.857 30.4613 278.679 31.236 278.679 32.132V32.692C278.679 33.588 278.885 34.3813 279.295 35.072C279.706 35.7627 280.285 36.2947 281.031 36.668C281.778 37.0413 282.637 37.228 283.607 37.228C284.447 37.228 285.203 37.0973 285.875 36.836C286.547 36.5747 287.145 36.164 287.667 35.604L289.543 37.76C288.871 38.544 288.022 39.1507 286.995 39.58C285.987 39.9907 284.83 40.196 283.523 40.196ZM293.913 40V25.048H297.245V29.164L296.853 27.96C297.301 26.952 298.001 26.1867 298.953 25.664C299.924 25.1413 301.128 24.88 302.565 24.88V28.212C302.416 28.1747 302.276 28.156 302.145 28.156C302.015 28.1373 301.884 28.128 301.753 28.128C300.428 28.128 299.373 28.52 298.589 29.304C297.805 30.0693 297.413 31.2173 297.413 32.748V40H293.913Z" fill="#2ED5DF"/>
</svg>
